<?xml version="1.0" encoding="utf-8"?>
<!-- Generator: Adobe Illustrator 22.1.0, SVG Export Plug-In . SVG Version: 6.00 Build 0)  -->
<svg version="1.1" id="Слой_1" xmlns="http://www.w3.org/2000/svg" xmlns:xlink="http://www.w3.org/1999/xlink" x="0px" y="0px"
	 viewBox="0 0 90 45" style="enable-background:new 0 0 90 45;" xml:space="preserve">
<style type="text/css">
	.st0{fill:#FFFFFF;}
	.st1{fill:#7F7F80;}
	.st2{fill:#26326E;}
</style>
<g>
	<polygon class="st0" points="11.6,30.9 0.5,12.7 22.7,12.7 	"/>
	<polygon class="st1" points="22.1,13.6 22.8,12.5 0.5,12.5 1.1,13.6 	"/>
	<polygon class="st1" points="8.9,26.5 11.6,30.9 14.3,26.5 	"/>
	<polygon class="st1" points="20.3,16.6 21.5,14.7 1.8,14.7 2.9,16.6 	"/>
	<polygon class="st1" points="16.7,22.5 17.9,20.6 5.4,20.6 6.5,22.5 	"/>
	<polygon class="st1" points="7.2,23.6 8.3,25.4 14.9,25.4 16.1,23.6 	"/>
	<polygon class="st1" points="18.5,19.5 19.7,17.7 3.6,17.6 4.7,19.5 	"/>
</g>
<rect x="22.9" y="25.3" class="st1" width="66.2" height="0.4"/>
<g>
	<path class="st2" d="M32.7,22.2l-0.4,1.4c-0.9,0.5-2,0.7-3.3,0.7c-0.9,0-1.7-0.1-2.5-0.4c-0.8-0.3-1.4-0.6-2-1.1
		c-0.6-0.5-1-1.1-1.3-1.8c-0.3-0.7-0.5-1.5-0.5-2.3c0-1,0.2-2,0.5-2.8c0.3-0.8,0.8-1.5,1.4-2c0.6-0.5,1.3-0.9,2.1-1.2
		c0.8-0.3,1.6-0.4,2.6-0.4c0.6,0,1.1,0.1,1.8,0.2c0.6,0.1,1.1,0.3,1.6,0.6l-0.2,0.9L32.4,15l-0.2,0c-0.2-0.3-0.4-0.6-0.7-0.8
		c-0.3-0.2-0.6-0.4-1-0.5c-0.4-0.1-0.7-0.2-1-0.2c-0.6,0-1.2,0.1-1.7,0.4c-0.5,0.3-0.9,0.7-1.2,1.2c-0.2,0.3-0.3,0.5-0.4,0.8
		c-0.1,0.3-0.2,0.5-0.3,0.8c-0.1,0.3-0.1,0.6-0.2,0.9c0,0.3-0.1,0.6-0.1,0.9c0,0.9,0.2,1.8,0.5,2.5c0.3,0.7,0.8,1.3,1.3,1.7
		c0.6,0.4,1.3,0.6,2.1,0.6c0.5,0,1-0.1,1.6-0.3c0.5-0.2,1-0.5,1.4-0.9L32.7,22.2z"/>
	<path class="st2" d="M36.4,20.6L36,21.8l-0.4,1.3l-0.3,1l-0.4,0l-0.4,0L34,24l-0.4,0l4.7-11.4c0.2,0,0.4,0,0.6,0c0.2,0,0.4,0,0.6,0
		l4.6,11.5L42.8,24c-0.2,0-0.4,0-0.7,0.1c-0.3,0-0.5,0-0.7,0c-0.5-1.6-0.9-2.7-1.2-3.4L36.4,20.6z M39.8,19.6l-1.5-3.8l-1.6,3.8
		L39.8,19.6z"/>
	<path class="st2" d="M50.3,24.1L49.1,24c-0.2,0-0.4,0-0.6,0.1c-0.2,0-0.4,0-0.6,0l0-10.1c-0.9,0-1.9,0.1-3.1,0.2
		c0.1-0.4,0.1-0.6,0.1-0.7c0-0.1,0-0.3-0.1-0.7l8.5,0c-0.1,0.4-0.1,0.6-0.1,0.7c0,0.1,0,0.3,0.1,0.7c-1.3-0.2-2.3-0.2-3-0.2
		L50.3,24.1z"/>
	<path class="st2" d="M60.3,24.3c-0.9,0-1.8-0.1-2.5-0.4c-0.7-0.3-1.4-0.6-1.9-1.2c-0.5-0.5-0.9-1.1-1.2-1.9
		c-0.3-0.7-0.4-1.6-0.4-2.5c0-1.1,0.3-2.1,0.8-3c0.5-0.9,1.3-1.6,2.3-2.1c1-0.5,2.1-0.8,3.5-0.8c1.1,0,2.1,0.2,2.9,0.5
		c0.8,0.4,1.4,0.8,1.9,1.4c0.5,0.6,0.8,1.2,1,1.9c0.1,0.3,0.2,0.7,0.2,1c0.1,0.3,0.1,0.7,0.1,1c0,0.8-0.2,1.6-0.5,2.3
		C66,21.4,65.6,22,65,22.6c-0.6,0.5-1.2,1-2.1,1.3C62.2,24.2,61.3,24.3,60.3,24.3z M56.9,18.9c0,0.8,0.1,1.5,0.4,2.1
		c0.2,0.7,0.6,1.2,1.1,1.6c0.3,0.2,0.5,0.4,0.9,0.5c0.3,0.1,0.7,0.2,1.1,0.2c0.8,0,1.5-0.2,2-0.7c0.6-0.5,1-1.1,1.2-1.9
		C63.9,19.9,64,19,64,18c0-0.4,0-0.8-0.1-1.1c-0.1-0.4-0.2-0.7-0.3-1.1c-0.2-0.7-0.6-1.3-1.2-1.7c-0.5-0.4-1.2-0.7-1.9-0.7
		c-0.6,0-1.1,0.1-1.5,0.3c-0.5,0.2-0.8,0.6-1.2,1c-0.3,0.4-0.6,1-0.7,1.7C57,17.2,56.9,18,56.9,18.9z"/>
	<path class="st2" d="M77.6,22.2l-0.4,1.4c-0.9,0.5-2,0.7-3.3,0.7c-0.9,0-1.7-0.1-2.5-0.4c-0.8-0.3-1.4-0.6-2-1.1
		c-0.6-0.5-1-1.1-1.3-1.8c-0.3-0.7-0.5-1.5-0.5-2.3c0-1,0.2-2,0.5-2.8c0.3-0.8,0.8-1.5,1.4-2c0.6-0.5,1.3-0.9,2.1-1.2
		c0.8-0.3,1.6-0.4,2.6-0.4c0.6,0,1.1,0.1,1.8,0.2c0.6,0.1,1.1,0.3,1.6,0.6l-0.2,0.9L77.3,15l-0.2,0c-0.2-0.3-0.4-0.6-0.7-0.8
		c-0.3-0.2-0.6-0.4-1-0.5c-0.4-0.1-0.7-0.2-1-0.2c-0.6,0-1.2,0.1-1.7,0.4c-0.5,0.3-0.9,0.7-1.2,1.2c-0.2,0.3-0.3,0.5-0.4,0.8
		c-0.1,0.3-0.2,0.5-0.3,0.8c-0.1,0.3-0.1,0.6-0.2,0.9c0,0.3-0.1,0.6-0.1,0.9c0,0.9,0.2,1.8,0.5,2.5c0.3,0.7,0.8,1.3,1.3,1.7
		c0.6,0.4,1.3,0.6,2.1,0.6c0.5,0,1-0.1,1.6-0.3c0.5-0.2,1-0.5,1.4-0.9L77.6,22.2z"/>
	<path class="st2" d="M81.3,20.7l-0.4,1.2l-0.4,1.3l-0.3,1l-0.4,0l-0.4,0l-0.4,0l-0.4,0l4.7-11.4c0.2,0,0.4,0,0.6,0
		c0.2,0,0.4,0,0.6,0l4.6,11.5L87.7,24c-0.2,0-0.4,0-0.7,0.1c-0.3,0-0.5,0-0.7,0c-0.5-1.6-0.9-2.7-1.2-3.4L81.3,20.7z M84.7,19.6
		l-1.5-3.8l-1.6,3.8L84.7,19.6z"/>
</g>
<g>
	<g>
		<path class="st2" d="M61.7,27.8c-0.1-0.2-0.2-0.3-0.3-0.3c-0.2,0-0.3,0.1-0.3,0.3c0,0.1,0,0.1,0.1,0.2c0.1,0,0.2,0.1,0.3,0.2
			c0.2,0.1,0.3,0.2,0.4,0.3c0.1,0.1,0.1,0.2,0.1,0.4c0,0.1,0,0.2-0.1,0.3c-0.1,0.1-0.2,0.2-0.3,0.2c-0.1,0.1-0.3,0.1-0.4,0.1
			c-0.2,0-0.3,0-0.5-0.1c0-0.1,0.1-0.3,0.1-0.4l0.1,0c0,0.1,0.1,0.2,0.1,0.2c0.1,0.1,0.2,0.1,0.3,0.1c0.1,0,0.2,0,0.2-0.1
			c0.1-0.1,0.1-0.1,0.1-0.2c0-0.1,0-0.2-0.1-0.2c-0.1,0-0.2-0.1-0.3-0.2c-0.2-0.1-0.3-0.2-0.3-0.2c-0.1-0.1-0.1-0.2-0.1-0.4
			c0-0.1,0-0.2,0-0.2c0-0.1,0.1-0.1,0.1-0.2c0.1-0.1,0.1-0.1,0.2-0.1c0.1,0,0.2,0,0.3,0c0.1,0,0.2,0,0.3,0c0.1,0,0.1,0.1,0.2,0.1
			c0,0,0,0,0,0.1C61.7,27.6,61.7,27.7,61.7,27.8L61.7,27.8z"/>
		<path class="st2" d="M63.2,29.4c-0.2,0-0.3,0-0.4-0.1s-0.2-0.1-0.3-0.2s-0.2-0.2-0.2-0.3c-0.1-0.1-0.1-0.3-0.1-0.4
			c0-0.2,0-0.4,0.1-0.5c0.1-0.2,0.2-0.3,0.4-0.4c0.2-0.1,0.4-0.1,0.6-0.1c0.2,0,0.4,0,0.5,0.1c0.1,0.1,0.3,0.1,0.3,0.2
			c0.1,0.1,0.1,0.2,0.2,0.3c0,0.1,0,0.1,0,0.2c0,0.1,0,0.1,0,0.2c0,0.1,0,0.3-0.1,0.4c-0.1,0.1-0.1,0.2-0.2,0.3
			c-0.1,0.1-0.2,0.2-0.4,0.2C63.5,29.4,63.3,29.4,63.2,29.4z M62.6,28.5c0,0.1,0,0.3,0.1,0.4c0,0.1,0.1,0.2,0.2,0.3
			c0,0,0.1,0.1,0.2,0.1c0.1,0,0.1,0,0.2,0c0.1,0,0.3,0,0.4-0.1c0.1-0.1,0.2-0.2,0.2-0.3c0-0.1,0.1-0.3,0.1-0.5c0-0.1,0-0.1,0-0.2
			c0-0.1,0-0.1,0-0.2c0-0.1-0.1-0.2-0.2-0.3c-0.1-0.1-0.2-0.1-0.3-0.1c-0.1,0-0.2,0-0.3,0.1s-0.1,0.1-0.2,0.2
			c-0.1,0.1-0.1,0.2-0.1,0.3C62.6,28.2,62.6,28.3,62.6,28.5z"/>
		<path class="st2" d="M66.2,29.1l-0.1,0.3c-0.2,0.1-0.4,0.1-0.6,0.1c-0.2,0-0.3,0-0.4-0.1c-0.1,0-0.3-0.1-0.3-0.2
			c-0.1-0.1-0.2-0.2-0.2-0.3c-0.1-0.1-0.1-0.3-0.1-0.4c0-0.2,0-0.3,0.1-0.5c0.1-0.1,0.1-0.3,0.2-0.3c0.1-0.1,0.2-0.2,0.4-0.2
			c0.1,0,0.3-0.1,0.5-0.1c0.1,0,0.2,0,0.3,0c0.1,0,0.2,0.1,0.3,0.1l0,0.2l0,0.1l0,0c0-0.1-0.1-0.1-0.1-0.1s-0.1-0.1-0.2-0.1
			c-0.1,0-0.1,0-0.2,0c-0.1,0-0.2,0-0.3,0.1c-0.1,0.1-0.2,0.1-0.2,0.2c0,0-0.1,0.1-0.1,0.1c0,0,0,0.1,0,0.2c0,0.1,0,0.1,0,0.2
			c0,0.1,0,0.1,0,0.2c0,0.2,0,0.3,0.1,0.4c0.1,0.1,0.1,0.2,0.2,0.3s0.2,0.1,0.4,0.1c0.1,0,0.2,0,0.3-0.1
			C66,29.2,66.1,29.1,66.2,29.1L66.2,29.1z"/>
		<path class="st2" d="M66.6,27.4c0,0,0.1,0,0.1,0c0,0,0.1,0,0.1,0c0,0,0.1,0,0.1,0c0,0,0.1,0,0.1,0l0,2l-0.2,0c0,0-0.1,0-0.1,0
			c0,0-0.1,0-0.1,0L66.6,27.4z"/>
		<path class="st2" d="M68.7,27.4l0,0.1c0,0,0,0.1,0,0.1c-0.2,0-0.4,0-0.7,0l0,0.6l0.3,0c0.1,0,0.2,0,0.4,0c0,0.1,0,0.1,0,0.1
			c0,0,0,0.1,0,0.1c-0.1,0-0.1,0-0.2,0c-0.1,0-0.1,0-0.2,0l-0.3,0l0,0.7c0.1,0,0.3,0,0.4,0c0.1,0,0.2,0,0.3,0l0,0.1c0,0,0,0.1,0,0.1
			l-1.1,0l0-2L68.7,27.4z"/>
		<path class="st2" d="M70,27.4c0.1,0,0.1,0,0.2,0c0.1,0,0.1,0,0.2,0.1c0.1,0.1,0.2,0.1,0.3,0.2c0.1,0.1,0.1,0.2,0.2,0.3
			c0,0.1,0.1,0.2,0.1,0.3c0,0.2,0,0.3-0.1,0.4c-0.1,0.1-0.1,0.2-0.2,0.3s-0.2,0.2-0.3,0.2c-0.1,0-0.3,0.1-0.4,0.1l-0.8,0l0-2
			L70,27.4z M69.5,29.2l0.2,0c0.2,0,0.4-0.1,0.5-0.2s0.2-0.4,0.2-0.7c0-0.2,0-0.3-0.1-0.4c-0.1-0.1-0.1-0.2-0.2-0.2
			s-0.2-0.1-0.4-0.1l-0.3,0L69.5,29.2z"/>
		<path class="st2" d="M71.6,28.8L71.5,29l-0.1,0.2l-0.1,0.2l-0.1,0l-0.1,0l-0.1,0l-0.1,0l0.8-2c0,0,0.1,0,0.1,0c0,0,0.1,0,0.1,0
			l0.8,2l-0.3,0c0,0-0.1,0-0.1,0c0,0-0.1,0-0.1,0c-0.1-0.3-0.2-0.5-0.2-0.6L71.6,28.8z M72.2,28.6l-0.3-0.7l-0.3,0.7L72.2,28.6z"/>
		<path class="st2" d="M74.2,27.4c0.1,0,0.1,0,0.2,0c0.1,0,0.1,0,0.2,0.1c0.1,0.1,0.2,0.1,0.3,0.2c0.1,0.1,0.1,0.2,0.2,0.3
			c0,0.1,0.1,0.2,0.1,0.3c0,0.2,0,0.3-0.1,0.4s-0.1,0.2-0.2,0.3c-0.1,0.1-0.2,0.2-0.3,0.2c-0.1,0-0.3,0.1-0.4,0.1l-0.8,0l0-2
			L74.2,27.4z M73.7,29.2l0.2,0c0.2,0,0.4-0.1,0.5-0.2s0.2-0.4,0.2-0.7c0-0.2,0-0.3-0.1-0.4c-0.1-0.1-0.1-0.2-0.2-0.2
			s-0.2-0.1-0.4-0.1l-0.3,0L73.7,29.2z"/>
		<path class="st2" d="M76.6,27.4l0,0.1c0,0,0,0.1,0,0.1c-0.2,0-0.4,0-0.7,0l0,0.6l0.3,0c0.1,0,0.2,0,0.4,0c0,0.1,0,0.1,0,0.1
			c0,0,0,0.1,0,0.1c-0.1,0-0.1,0-0.2,0c-0.1,0-0.1,0-0.2,0l-0.3,0l0,0.7c0.1,0,0.3,0,0.4,0c0.1,0,0.2,0,0.3,0l0,0.1c0,0,0,0.1,0,0.1
			l-1.1,0l0-2L76.6,27.4z"/>
		<path class="st2" d="M80.1,27.4c0.1,0,0.1,0,0.1,0c0,0,0.1,0,0.1,0l0.1,0.6l0.1,0.5l0.1,0.5c0,0.1,0,0.1,0,0.2c0,0.1,0,0.1,0,0.2
			l-0.2,0l-0.2,0c0,0,0-0.1,0-0.1c0,0,0-0.1,0-0.2l0-0.3l0-0.3l0-0.4l-0.2,0.3l-0.2,0.4l-0.2,0.3l-0.2,0.3l-0.1,0l-0.1-0.3
			c0-0.1-0.1-0.1-0.1-0.2c0,0,0-0.1-0.1-0.1l-0.2-0.3l-0.2-0.3c0,0.3-0.1,0.6-0.1,0.8c0,0.2,0,0.4,0,0.6l-0.1,0l-0.1,0
			c0-0.1,0.1-0.3,0.1-0.5c0-0.2,0.1-0.4,0.1-0.7c0-0.3,0.1-0.6,0.1-0.8c0.1,0,0.1,0,0.1,0c0,0,0.1,0,0.1,0c0.1,0.3,0.3,0.7,0.7,1.4
			l0.2-0.3l0.2-0.4c0-0.1,0.1-0.1,0.1-0.2c0,0,0-0.1,0.1-0.1c0-0.1,0.1-0.1,0.1-0.2C80.1,27.5,80.1,27.5,80.1,27.4z"/>
		<path class="st2" d="M81,27.4c0,0,0.1,0,0.1,0c0,0,0.1,0,0.1,0c0,0,0.1,0,0.1,0c0,0,0.1,0,0.1,0l0,2l-0.2,0c0,0-0.1,0-0.1,0
			c0,0-0.1,0-0.1,0L81,27.4z"/>
		<path class="st2" d="M82,27.4l0.3,0l0.3,0.3l0.3,0.3l0.3,0.4c0,0,0.1,0.1,0.1,0.1c0.1,0.1,0.1,0.1,0.1,0.1c0,0,0.1,0.1,0.1,0.1
			l0-1.4c0,0,0.1,0,0.1,0c0,0,0.1,0,0.1,0l0,2l-0.2,0L83.1,29l-0.3-0.4c0,0-0.1-0.1-0.1-0.2c0,0-0.1-0.1-0.2-0.2L82.2,28l0,1.4
			l-0.1,0l-0.1,0l-0.1,0l-0.1,0L82,27.4z"/>
		<path class="st2" d="M85.3,27.4l0,0.1c0,0,0,0.1,0,0.1c-0.2,0-0.4,0-0.7,0l0,0.6l0.3,0c0.1,0,0.2,0,0.4,0c0,0.1,0,0.1,0,0.1
			c0,0,0,0.1,0,0.1c-0.1,0-0.1,0-0.2,0c-0.1,0-0.1,0-0.2,0l-0.3,0l0,0.7c0.1,0,0.3,0,0.4,0c0.1,0,0.2,0,0.3,0l0,0.1c0,0,0,0.1,0,0.1
			l-1.1,0l0-2L85.3,27.4z"/>
		<path class="st2" d="M85.7,27.4l0.6,0c0.2,0,0.4,0,0.5,0.1c0.2,0.1,0.3,0.2,0.3,0.4c0,0.1,0,0.3-0.1,0.3c-0.1,0.1-0.2,0.1-0.3,0.2
			l0.1,0.2l0.2,0.3l0.2,0.3l0.1,0.2l-0.3,0c0,0-0.1,0-0.1,0c-0.1,0-0.1,0-0.1,0l-0.3-0.6l-0.1-0.2l-0.1-0.2l0,0l0,0.9l-0.2,0
			c0,0-0.1,0-0.1,0c0,0-0.1,0-0.1,0L85.7,27.4z M86.1,28.3L86.1,28.3c0.3,0,0.5-0.1,0.5-0.4c0,0,0,0,0-0.1c0,0,0-0.1,0-0.1
			c0-0.1-0.1-0.1-0.1-0.2c-0.1,0-0.1,0-0.2,0l-0.1,0L86.1,28.3z"/>
		<path class="st2" d="M87.7,28.8L87.7,29l-0.1,0.2l-0.1,0.2l-0.1,0l-0.1,0l-0.1,0l-0.1,0l0.8-2c0,0,0.1,0,0.1,0c0,0,0.1,0,0.1,0
			l0.8,2l-0.3,0c0,0-0.1,0-0.1,0c0,0-0.1,0-0.1,0c-0.1-0.3-0.2-0.5-0.2-0.6L87.7,28.8z M88.4,28.6l-0.3-0.7l-0.3,0.7L88.4,28.6z"/>
		<path class="st2" d="M65.5,30.9c0.1,0,0.1,0,0.2,0c0.1,0,0.1,0,0.2,0.1c0.1,0.1,0.2,0.1,0.3,0.2c0.1,0.1,0.1,0.2,0.2,0.3
			c0,0.1,0.1,0.2,0.1,0.3c0,0.2,0,0.3-0.1,0.4c-0.1,0.1-0.1,0.2-0.2,0.3c-0.1,0.1-0.2,0.2-0.3,0.2c-0.1,0-0.3,0.1-0.4,0.1l-0.8,0
			l0-2L65.5,30.9z M64.9,32.7l0.2,0c0.2,0,0.4-0.1,0.5-0.2c0.1-0.1,0.2-0.4,0.2-0.7c0-0.2,0-0.3-0.1-0.4c-0.1-0.1-0.1-0.2-0.2-0.2
			c-0.1-0.1-0.2-0.1-0.4-0.1l-0.3,0L64.9,32.7z"/>
		<path class="st2" d="M67.8,30.9l0,0.1c0,0,0,0.1,0,0.1c-0.2,0-0.4,0-0.7,0l0,0.6l0.3,0c0.1,0,0.2,0,0.4,0c0,0.1,0,0.1,0,0.1
			c0,0,0,0.1,0,0.1c-0.1,0-0.1,0-0.2,0c-0.1,0-0.1,0-0.2,0l-0.3,0l0,0.7c0.1,0,0.3,0,0.4,0c0.1,0,0.2,0,0.3,0l0,0.1c0,0,0,0.1,0,0.1
			l-1.1,0l0-2L67.8,30.9z"/>
		<path class="st2" d="M71.2,32.6l-0.1,0.3c-0.2,0.1-0.4,0.1-0.6,0.1c-0.2,0-0.3,0-0.4-0.1c-0.1,0-0.3-0.1-0.3-0.2
			c-0.1-0.1-0.2-0.2-0.2-0.3c-0.1-0.1-0.1-0.3-0.1-0.4c0-0.2,0-0.3,0.1-0.5c0.1-0.1,0.1-0.3,0.2-0.3c0.1-0.1,0.2-0.2,0.4-0.2
			c0.1,0,0.3-0.1,0.5-0.1c0.1,0,0.2,0,0.3,0c0.1,0,0.2,0.1,0.3,0.1l0,0.2l0,0.1l0,0c0-0.1-0.1-0.1-0.1-0.1s-0.1-0.1-0.2-0.1
			c-0.1,0-0.1,0-0.2,0c-0.1,0-0.2,0-0.3,0.1c-0.1,0.1-0.2,0.1-0.2,0.2c0,0-0.1,0.1-0.1,0.1c0,0,0,0.1,0,0.2c0,0.1,0,0.1,0,0.2
			c0,0.1,0,0.1,0,0.2c0,0.2,0,0.3,0.1,0.4c0.1,0.1,0.1,0.2,0.2,0.3c0.1,0.1,0.2,0.1,0.4,0.1c0.1,0,0.2,0,0.3-0.1
			C71,32.7,71.1,32.6,71.2,32.6L71.2,32.6z"/>
		<path class="st2" d="M71.9,32.3l-0.1,0.2l-0.1,0.2l-0.1,0.2l-0.1,0l-0.1,0l-0.1,0l-0.1,0l0.8-2c0,0,0.1,0,0.1,0c0,0,0.1,0,0.1,0
			l0.8,2l-0.3,0c0,0-0.1,0-0.1,0c0,0-0.1,0-0.1,0c-0.1-0.3-0.2-0.5-0.2-0.6L71.9,32.3z M72.5,32.1l-0.3-0.7L72,32.1L72.5,32.1z"/>
		<path class="st2" d="M74.3,32.9l-0.2,0c0,0-0.1,0-0.1,0c0,0-0.1,0-0.1,0l0-1.8c-0.2,0-0.3,0-0.5,0c0-0.1,0-0.1,0-0.1
			c0,0,0-0.1,0-0.1l1.5,0c0,0.1,0,0.1,0,0.1c0,0,0,0.1,0,0.1c-0.2,0-0.4,0-0.5,0L74.3,32.9z"/>
		<path class="st2" d="M76.1,32.9c-0.2,0-0.3,0-0.4-0.1s-0.2-0.1-0.3-0.2c-0.1-0.1-0.2-0.2-0.2-0.3C75,32.2,75,32.1,75,31.9
			c0-0.2,0-0.4,0.1-0.5c0.1-0.2,0.2-0.3,0.4-0.4c0.2-0.1,0.4-0.1,0.6-0.1c0.2,0,0.4,0,0.5,0.1c0.1,0.1,0.3,0.1,0.3,0.2
			c0.1,0.1,0.1,0.2,0.2,0.3c0,0.1,0,0.1,0,0.2c0,0.1,0,0.1,0,0.2c0,0.1,0,0.3-0.1,0.4c-0.1,0.1-0.1,0.2-0.2,0.3s-0.2,0.2-0.4,0.2
			C76.4,32.9,76.3,32.9,76.1,32.9z M75.5,32c0,0.1,0,0.3,0.1,0.4c0,0.1,0.1,0.2,0.2,0.3c0,0,0.1,0.1,0.2,0.1c0.1,0,0.1,0,0.2,0
			c0.1,0,0.3,0,0.4-0.1c0.1-0.1,0.2-0.2,0.2-0.3c0-0.1,0.1-0.3,0.1-0.5c0-0.1,0-0.1,0-0.2s0-0.1,0-0.2c0-0.1-0.1-0.2-0.2-0.3
			c-0.1-0.1-0.2-0.1-0.3-0.1c-0.1,0-0.2,0-0.3,0.1s-0.1,0.1-0.2,0.2c-0.1,0.1-0.1,0.2-0.1,0.3C75.5,31.7,75.5,31.8,75.5,32z"/>
		<path class="st2" d="M79.2,32.6l-0.1,0.3c-0.2,0.1-0.4,0.1-0.6,0.1c-0.2,0-0.3,0-0.4-0.1c-0.1,0-0.3-0.1-0.3-0.2
			c-0.1-0.1-0.2-0.2-0.2-0.3c-0.1-0.1-0.1-0.3-0.1-0.4c0-0.2,0-0.3,0.1-0.5c0.1-0.1,0.1-0.3,0.2-0.3c0.1-0.1,0.2-0.2,0.4-0.2
			s0.3-0.1,0.5-0.1c0.1,0,0.2,0,0.3,0c0.1,0,0.2,0.1,0.3,0.1l0,0.2l0,0.1l0,0c0-0.1-0.1-0.1-0.1-0.1s-0.1-0.1-0.2-0.1
			c-0.1,0-0.1,0-0.2,0c-0.1,0-0.2,0-0.3,0.1c-0.1,0.1-0.2,0.1-0.2,0.2c0,0-0.1,0.1-0.1,0.1c0,0,0,0.1,0,0.2c0,0.1,0,0.1,0,0.2
			c0,0.1,0,0.1,0,0.2c0,0.2,0,0.3,0.1,0.4c0.1,0.1,0.1,0.2,0.2,0.3c0.1,0.1,0.2,0.1,0.4,0.1c0.1,0,0.2,0,0.3-0.1
			C79,32.7,79.1,32.6,79.2,32.6L79.2,32.6z"/>
		<path class="st2" d="M79.8,32.3l-0.1,0.2l-0.1,0.2l-0.1,0.2l-0.1,0l-0.1,0l-0.1,0l-0.1,0l0.8-2c0,0,0.1,0,0.1,0c0,0,0.1,0,0.1,0
			l0.8,2l-0.3,0c0,0-0.1,0-0.1,0c0,0-0.1,0-0.1,0c-0.1-0.3-0.2-0.5-0.2-0.6L79.8,32.3z M80.4,32.1l-0.3-0.7l-0.3,0.7L80.4,32.1z"/>
		<path class="st2" d="M83.2,32.7c0,0,0.1,0,0.2,0c0.1,0,0.1,0,0.2,0c0,0,0.1,0,0.2,0c0.1,0,0.1,0,0.2,0l0,0.1c0,0,0,0.1,0,0.1
			l-1.1,0l0-2c0,0,0.1,0,0.1,0c0,0,0.1,0,0.1,0c0,0,0.1,0,0.1,0c0,0,0.1,0,0.1,0L83.2,32.7z"/>
		<path class="st2" d="M85.3,30.9c0.1,0,0.1,0,0.2,0c0.1,0,0.1,0,0.2,0.1c0.1,0.1,0.2,0.1,0.3,0.2c0.1,0.1,0.1,0.2,0.2,0.3
			c0,0.1,0.1,0.2,0.1,0.3c0,0.2,0,0.3-0.1,0.4c-0.1,0.1-0.1,0.2-0.2,0.3c-0.1,0.1-0.2,0.2-0.3,0.2c-0.1,0-0.3,0.1-0.4,0.1l-0.8,0
			l0-2L85.3,30.9z M84.7,32.7l0.2,0c0.2,0,0.4-0.1,0.5-0.2c0.1-0.1,0.2-0.4,0.2-0.7c0-0.2,0-0.3-0.1-0.4c-0.1-0.1-0.1-0.2-0.2-0.2
			c-0.1-0.1-0.2-0.1-0.4-0.1l-0.3,0L84.7,32.7z"/>
		<path class="st2" d="M86.8,32.3l-0.1,0.2l-0.1,0.2l-0.1,0.2l-0.1,0l-0.1,0l-0.1,0l-0.1,0l0.8-2c0,0,0.1,0,0.1,0c0,0,0.1,0,0.1,0
			l0.8,2l-0.3,0c0,0-0.1,0-0.1,0c0,0-0.1,0-0.1,0c-0.1-0.3-0.2-0.5-0.2-0.6L86.8,32.3z M87.4,32.1l-0.3-0.7l-0.3,0.7L87.4,32.1z"/>
		<path class="st2" d="M88.4,32.7c0-0.1,0-0.1,0.1-0.2c0,0,0.1-0.1,0.2-0.1c0,0,0.1,0,0.1,0s0.1,0.1,0.1,0.1c0,0,0,0.1,0,0.1
			c0,0.1,0,0.1-0.1,0.2c0,0-0.1,0.1-0.2,0.1c-0.1,0-0.1,0-0.2-0.1S88.4,32.7,88.4,32.7z"/>
	</g>
</g>
</svg>
