<svg id="Слой_1" data-name="Слой 1" xmlns="http://www.w3.org/2000/svg" viewBox="0 0 420 100"><defs><style>.cls-1{fill:#fff;}.cls-2{fill:#7f7f80;}.cls-3{fill:#26326e;}</style></defs><title>100</title><polygon class="cls-1" points="57.22 87.87 6.2 3.89 108.54 3.89 57.22 87.87"/><polygon class="cls-2" points="105.83 8.36 108.87 3.4 5.9 3.4 8.92 8.36 105.83 8.36"/><polygon class="cls-2" points="45 67.73 57.24 87.88 69.55 67.73 45 67.73"/><polygon class="cls-2" points="97.52 21.96 102.81 13.3 11.93 13.3 17.19 21.96 97.52 21.96"/><polygon class="cls-2" points="80.89 49.18 86.18 40.52 28.46 40.52 33.72 49.18 80.89 49.18"/><polygon class="cls-2" points="36.73 54.13 41.99 62.78 72.57 62.78 77.86 54.13 36.73 54.13"/><polygon class="cls-2" points="89.2 35.57 94.49 26.91 20.19 26.91 25.45 35.57 89.2 35.57"/><rect class="cls-2" x="109.1" y="62.29" width="305.19" height="1.65"/><path class="cls-3" d="M154.42,47.76l-1.67,6.56a32.09,32.09,0,0,1-15,3.26,34.47,34.47,0,0,1-11.31-1.81,26.84,26.84,0,0,1-9.11-5.2,23.75,23.75,0,0,1-6-8.18A25,25,0,0,1,109.13,32a32.26,32.26,0,0,1,2.34-12.7A24.37,24.37,0,0,1,118,10.16a27.13,27.13,0,0,1,9.61-5.32A38.7,38.7,0,0,1,139.4,3.09a36.36,36.36,0,0,1,8.1,1,26.48,26.48,0,0,1,7.37,2.78l-.93,4.08-.82,3.71h-1a16.72,16.72,0,0,0-3.38-3.6,15.84,15.84,0,0,0-4.41-2.46,13.75,13.75,0,0,0-4.83-.91,15.56,15.56,0,0,0-7.9,2A16.27,16.27,0,0,0,126,15a26.1,26.1,0,0,0-1.89,3.51,23.27,23.27,0,0,0-1.3,3.91,37.52,37.52,0,0,0-.78,4.15,34.57,34.57,0,0,0-.26,4.34,29.62,29.62,0,0,0,2.12,11.52,16.34,16.34,0,0,0,16,10.59,18.42,18.42,0,0,0,7.2-1.59,21.19,21.19,0,0,0,6.38-4.12Z"/><path class="cls-3" d="M171.39,40.71,169.52,46l-2.07,5.88L166,56.43l-1.79-.11-1.78-.11-1.78.11-1.85.11L180.57,3.8a18.65,18.65,0,0,0,2.86.22,19.73,19.73,0,0,0,2.89-.22l21.22,52.78L201,56.21c-.94.1-2,.19-3.3.26s-2.35.11-3.27.11q-3.33-10.86-5.37-15.87Zm15.93-4.64-6.75-17.69-7.14,17.69Z"/><path class="cls-3" d="M235.55,56.58l-5.68-.37c-.84.1-1.8.19-2.89.26s-2,.11-2.82.11V9.84A107.74,107.74,0,0,0,210,10.92c.24-1.71.37-2.79.37-3.26s-.13-1.49-.37-3.19h39.13a31,31,0,0,0-.37,3.19,31.76,31.76,0,0,0,.37,3.26,127.47,127.47,0,0,0-13.61-1.08Z"/><path class="cls-3" d="M281.54,57.58A34.53,34.53,0,0,1,270,55.77a24.41,24.41,0,0,1-8.85-5.33,23.79,23.79,0,0,1-5.71-8.56,30.63,30.63,0,0,1-2-11.45A27.31,27.31,0,0,1,257,16.58a25.25,25.25,0,0,1,10.4-9.87,33.6,33.6,0,0,1,15.95-3.62,32.52,32.52,0,0,1,13.23,2.45,23.18,23.18,0,0,1,8.73,6.4,25.17,25.17,0,0,1,4.67,8.7,34.89,34.89,0,0,1,1.12,4.69,30.77,30.77,0,0,1,.37,4.81,27.13,27.13,0,0,1-2.08,10.53,25.88,25.88,0,0,1-6,8.79A27.92,27.92,0,0,1,294,55.41,33.93,33.93,0,0,1,281.54,57.58ZM266,32.66a28.88,28.88,0,0,0,1.67,9.86,16.71,16.71,0,0,0,5.23,7.57,12.37,12.37,0,0,0,4,2.19,15.53,15.53,0,0,0,5,.74,13.76,13.76,0,0,0,9.37-3.34A19.88,19.88,0,0,0,297,40.76a37.65,37.65,0,0,0,1.88-12.07,31,31,0,0,0-.41-5.1,29.71,29.71,0,0,0-1.3-4.95,17.66,17.66,0,0,0-5.3-7.9,13.35,13.35,0,0,0-8.94-3.08,15.89,15.89,0,0,0-7.07,1.52,13.89,13.89,0,0,0-5.32,4.6,22.43,22.43,0,0,0-3.34,7.82A47.16,47.16,0,0,0,266,32.66Z"/><path class="cls-3" d="M361.3,47.76l-1.67,6.56a32.13,32.13,0,0,1-15,3.26,34.47,34.47,0,0,1-11.31-1.81,26.94,26.94,0,0,1-9.11-5.2,23.75,23.75,0,0,1-6-8.18A25.15,25.15,0,0,1,316,32a32.26,32.26,0,0,1,2.34-12.7,24.37,24.37,0,0,1,6.49-9.09,27.13,27.13,0,0,1,9.61-5.32,38.7,38.7,0,0,1,11.83-1.75,36.51,36.51,0,0,1,8.11,1,26.53,26.53,0,0,1,7.36,2.78l-.93,4.08L360,14.63h-1a16.72,16.72,0,0,0-3.38-3.6,15.84,15.84,0,0,0-4.41-2.46,13.69,13.69,0,0,0-4.82-.91,15.51,15.51,0,0,0-7.9,2A16.21,16.21,0,0,0,332.84,15,26.1,26.1,0,0,0,331,18.51a23.27,23.27,0,0,0-1.3,3.91,39.89,39.89,0,0,0-.77,4.15,32.78,32.78,0,0,0-.26,4.34,29.62,29.62,0,0,0,2.11,11.52,16.36,16.36,0,0,0,16,10.59,18.34,18.34,0,0,0,7.19-1.59,21.07,21.07,0,0,0,6.38-4.12Z"/><path class="cls-3" d="M378.26,40.71,376.39,46l-2.07,5.88-1.41,4.52-1.78-.11-1.78-.11-1.78.11-1.86.11L387.45,3.8A18.43,18.43,0,0,0,390.3,4a19.86,19.86,0,0,0,2.9-.22l21.21,52.78-6.52-.37c-.94.1-2,.19-3.3.26s-2.35.11-3.26.11Q398,45.72,396,40.71Zm15.94-4.64-6.75-17.69L380.3,36.07Z"/><path class="cls-3" d="M287.94,73.53a1.59,1.59,0,0,0-1.55-1.17c-1,0-1.48.44-1.48,1.32a1,1,0,0,0,.4.87,17.08,17.08,0,0,0,1.49.84,5.76,5.76,0,0,1,1.65,1.19,2.38,2.38,0,0,1,.55,1.65,2.69,2.69,0,0,1-.45,1.52,3.07,3.07,0,0,1-1.27,1,4.24,4.24,0,0,1-1.84.38,4,4,0,0,1-2.16-.57,15.93,15.93,0,0,0,.39-1.71h.26a1.82,1.82,0,0,0,.64,1.08,1.87,1.87,0,0,0,1.2.4,1.72,1.72,0,0,0,1.12-.37,1.26,1.26,0,0,0,.46-1,1.19,1.19,0,0,0-.43-1,9.29,9.29,0,0,0-1.47-.81,5.11,5.11,0,0,1-1.58-1.09,2.39,2.39,0,0,1-.52-1.67,2.87,2.87,0,0,1,.2-1.1,2.43,2.43,0,0,1,.59-.9,2.75,2.75,0,0,1,1-.6,4.13,4.13,0,0,1,2.6,0,2.16,2.16,0,0,1,.84.45c0,.07-.07.21-.13.4-.11.34-.21.64-.29.92Z"/><path class="cls-3" d="M294.86,81.18a6,6,0,0,1-2-.32,4.18,4.18,0,0,1-2.57-2.45,5.39,5.39,0,0,1-.36-2,4.87,4.87,0,0,1,.64-2.45,4.36,4.36,0,0,1,1.84-1.74,5.86,5.86,0,0,1,2.81-.64,5.72,5.72,0,0,1,2.34.43,4.14,4.14,0,0,1,1.54,1.13,4.53,4.53,0,0,1,.83,1.54,5.2,5.2,0,0,1,.19.83,4.64,4.64,0,0,1,.07.85,4.71,4.71,0,0,1-.37,1.86,4.53,4.53,0,0,1-1,1.55,4.8,4.8,0,0,1-1.68,1A5.85,5.85,0,0,1,294.86,81.18Zm-2.74-4.4a5.05,5.05,0,0,0,.3,1.74,2.91,2.91,0,0,0,.92,1.34,2.34,2.34,0,0,0,.71.39,2.67,2.67,0,0,0,.88.13,2.44,2.44,0,0,0,1.65-.59,3.51,3.51,0,0,0,1-1.58,6.65,6.65,0,0,0,.33-2.13,5.29,5.29,0,0,0-.07-.9,5,5,0,0,0-.23-.88,3.16,3.16,0,0,0-.94-1.39,2.35,2.35,0,0,0-1.58-.55,2.79,2.79,0,0,0-1.24.27,2.38,2.38,0,0,0-.94.82,3.81,3.81,0,0,0-.59,1.38A8.09,8.09,0,0,0,292.12,76.78Z"/><path class="cls-3" d="M309,79.45l-.29,1.16a5.77,5.77,0,0,1-2.66.57,6,6,0,0,1-2-.32,4.88,4.88,0,0,1-1.61-.91,4.29,4.29,0,0,1-1.06-1.45,4.49,4.49,0,0,1-.38-1.84,5.83,5.83,0,0,1,.41-2.25,4.3,4.3,0,0,1,1.15-1.6,4.71,4.71,0,0,1,1.7-.94,6.71,6.71,0,0,1,3.52-.14,4.75,4.75,0,0,1,1.3.49l-.16.72-.15.66h-.18a3,3,0,0,0-.6-.64,2.69,2.69,0,0,0-.78-.43,2.38,2.38,0,0,0-.85-.17,2.8,2.8,0,0,0-1.4.35,2.9,2.9,0,0,0-1,1,4.66,4.66,0,0,0-.33.62,4.29,4.29,0,0,0-.23.69,7.34,7.34,0,0,0-.14.74,6,6,0,0,0,0,.76,5.26,5.26,0,0,0,.37,2,3,3,0,0,0,1.1,1.38,3,3,0,0,0,1.73.49,3.4,3.4,0,0,0,1.27-.28,3.68,3.68,0,0,0,1.12-.73Z"/><path class="cls-3" d="M310.78,71.8l.52,0,.48.05.51-.05.5,0V81l-1-.07-.51,0-.49,0Z"/><path class="cls-3" d="M320.18,71.8l-.06.58q0,.12.06.57a24.21,24.21,0,0,0-3.1-.18v2.88h1.4a11.87,11.87,0,0,0,1.65-.12,2.44,2.44,0,0,0,0,1.16l-.85-.09-.8,0h-1.4V80c.63,0,1.18,0,1.65,0s1-.08,1.45-.14l-.06.58q0,.12.06.57h-5.11V71.8Z"/><path class="cls-3" d="M326.47,71.8a4.22,4.22,0,0,1,1,.1,4.62,4.62,0,0,1,.86.3,3.47,3.47,0,0,1,1.26,1,3.88,3.88,0,0,1,.73,1.34,5.33,5.33,0,0,1,.24,1.62,5.42,5.42,0,0,1-.37,2,4.2,4.2,0,0,1-1,1.52,4.45,4.45,0,0,1-1.56,1,5.45,5.45,0,0,1-1.92.33h-3.76V71.8Zm-2.58,8.36H325a3.1,3.1,0,0,0,2.39-.92,4.53,4.53,0,0,0,.87-3.15,4.66,4.66,0,0,0-.37-2,2.43,2.43,0,0,0-1.05-1.14,3.55,3.55,0,0,0-1.67-.36h-1.31Z"/><path class="cls-3" d="M333.57,78.2l-.33.94-.36,1-.25.8-.32,0-.31,0-.32,0-.32,0,3.84-9.3a2.81,2.81,0,0,0,.5,0,3.08,3.08,0,0,0,.51,0L340,81l-1.15-.07-.59,0-.57,0c-.4-1.28-.71-2.22-.95-2.81Zm2.82-.82-1.19-3.12-1.27,3.12Z"/><path class="cls-3" d="M345.86,71.8a4.1,4.1,0,0,1,1,.1,4.48,4.48,0,0,1,.87.3,3.56,3.56,0,0,1,1.26,1,3.88,3.88,0,0,1,.73,1.34,5.66,5.66,0,0,1,.23,1.62,5.42,5.42,0,0,1-.36,2,4.2,4.2,0,0,1-1,1.52,4.45,4.45,0,0,1-1.56,1,5.45,5.45,0,0,1-1.92.33h-3.76V71.8Zm-2.57,8.36h1.14a3.11,3.11,0,0,0,2.39-.92,4.53,4.53,0,0,0,.87-3.15,4.81,4.81,0,0,0-.37-2,2.43,2.43,0,0,0-1.05-1.14,3.58,3.58,0,0,0-1.67-.36h-1.31Z"/><path class="cls-3" d="M356.73,71.8l-.06.58q0,.12.06.57a24,24,0,0,0-3.09-.18v2.88H355a11.87,11.87,0,0,0,1.65-.12,2.83,2.83,0,0,0,0,1.16l-.85-.09-.8,0h-1.39V80c.62,0,1.17,0,1.64,0s1-.08,1.45-.14l-.06.58q0,.12.06.57h-5.11V71.8Z"/><path class="cls-3" d="M373.15,71.8l.56.07.58-.07.31,2.74.29,2.35.27,2.13.15,1c0,.24.09.56.16,1l-1.11-.07-1.09.07c0-.2,0-.41,0-.61s0-.52-.07-1L373,78l-.15-1.39-.19-1.82L372,76.23l-.79,1.63-.77,1.61-.69,1.47h-.51l-.69-1.44-.4-.85c-.09-.19-.2-.4-.32-.62L367,76.46l-.77-1.56c-.18,1.39-.31,2.57-.4,3.52s-.16,2-.16,2.59l-.63-.07-.62.07q.18-1,.39-2.34.18-1.19.45-3.06c.22-1.51.39-2.78.53-3.81l.55.07.57-.07c.57,1.25,1.59,3.35,3.08,6.31l.75-1.46.88-1.72c.18-.35.34-.66.46-.92l.31-.63.38-.8Z"/><path class="cls-3" d="M377.15,71.8l.53,0,.48.05.51-.05.5,0V81l-1-.07-.51,0-.5,0Z"/><path class="cls-3" d="M381.52,71.8h1.33l1.34,1.43,1.48,1.59,1.58,1.69.46.51.47.53.47.54V71.8a3.12,3.12,0,0,0,.54,0,3.27,3.27,0,0,0,.54,0V81l-1.14,0-1.66-1.84-1.47-1.63-.69-.75-.71-.76-1.46-1.52V81l-.28,0-.26,0-.27,0-.27,0Z"/><path class="cls-3" d="M397,71.8l-.06.58q0,.12.06.57a24.21,24.21,0,0,0-3.1-.18v2.88h1.4a11.87,11.87,0,0,0,1.65-.12,2.44,2.44,0,0,0,0,1.16l-.85-.09-.8,0h-1.4V80c.63,0,1.18,0,1.65,0s1-.08,1.45-.14l-.06.58q0,.12.06.57h-5.11V71.8Z"/><path class="cls-3" d="M398.56,71.8h2.86a5.82,5.82,0,0,1,2.17.27A2,2,0,0,1,404.76,74a2.28,2.28,0,0,1-.56,1.58,2.8,2.8,0,0,1-1.53.84l.68,1.13.89,1.4.8,1.24.53.83-1.22-.07-.62,0-.59,0-1.6-2.82-.44-.76-.43-.73h-.1V81l-1-.07-.5,0-.5,0Zm2,4.33h.34c1.18,0,1.77-.65,1.77-1.93a1.94,1.94,0,0,0,0-.33c0-.12,0-.24-.05-.35a1,1,0,0,0-.53-.81,2.67,2.67,0,0,0-1.11-.19h-.4Z"/><path class="cls-3" d="M408.15,78.2l-.33.94-.36,1-.25.8-.32,0-.31,0-.32,0-.33,0,3.84-9.3a2.92,2.92,0,0,0,.51,0,3.08,3.08,0,0,0,.51,0L414.54,81l-1.15-.07-.59,0-.57,0c-.4-1.28-.71-2.22-1-2.81Zm2.82-.82-1.2-3.12-1.26,3.12Z"/><path class="cls-3" d="M305.58,87.91a4.22,4.22,0,0,1,1,.1,3.52,3.52,0,0,1,.86.3,3.45,3.45,0,0,1,1.26.94,4,4,0,0,1,.73,1.35,5.27,5.27,0,0,1,.24,1.61,5.38,5.38,0,0,1-.37,2,4.33,4.33,0,0,1-1,1.53,4.45,4.45,0,0,1-1.56,1,5.45,5.45,0,0,1-1.92.33H301V87.91ZM303,96.27h1.14a3.15,3.15,0,0,0,2.39-.92,5.94,5.94,0,0,0,.5-5.16,2.34,2.34,0,0,0-1-1.14,3.55,3.55,0,0,0-1.67-.36H303Z"/><path class="cls-3" d="M316.45,87.91l-.07.57a4.3,4.3,0,0,0,.07.58,24.32,24.32,0,0,0-3.1-.18v2.88h1.39a10.59,10.59,0,0,0,1.66-.13,3.83,3.83,0,0,0-.07.58,3.7,3.7,0,0,0,.07.58l-.85-.09-.81,0h-1.39v3.41c.62,0,1.17,0,1.65,0s.95-.07,1.45-.14l-.07.58a4.49,4.49,0,0,0,.07.58h-5.11V87.91Z"/><path class="cls-3" d="M332.06,95.55l-.3,1.16a5.6,5.6,0,0,1-2.65.58,6.21,6.21,0,0,1-2-.32,4.81,4.81,0,0,1-1.61-.92,4.21,4.21,0,0,1-1.06-1.44,4.38,4.38,0,0,1-.38-1.85,5.6,5.6,0,0,1,.41-2.24,4.32,4.32,0,0,1,1.14-1.61,5,5,0,0,1,1.7-.94,7,7,0,0,1,2.09-.31,6.56,6.56,0,0,1,1.43.17,5.18,5.18,0,0,1,1.31.49l-.17.73-.14.65h-.19a2.9,2.9,0,0,0-1.37-1.07,2.37,2.37,0,0,0-.85-.16,2.67,2.67,0,0,0-1.4.35,2.81,2.81,0,0,0-1,1,4.12,4.12,0,0,0-.33.62,3.1,3.1,0,0,0-.23.69,7.17,7.17,0,0,0-.14.73,6.1,6.1,0,0,0-.05.77,5.17,5.17,0,0,0,.38,2,2.85,2.85,0,0,0,2.82,1.87,3.18,3.18,0,0,0,1.27-.28,3.73,3.73,0,0,0,1.13-.73Z"/><path class="cls-3" d="M335.05,94.31l-.33.94-.36,1-.25.8-.32,0-.31,0-.32,0-.32,0,3.84-9.3a4.21,4.21,0,0,0,.5,0,4.75,4.75,0,0,0,.51,0l3.75,9.32-1.15-.06-.59,0c-.22,0-.41,0-.57,0-.39-1.28-.71-2.21-.95-2.8Zm2.82-.82-1.19-3.13-1.27,3.13Z"/><path class="cls-3" d="M346.39,97.11l-1-.06-.52,0a4.44,4.44,0,0,1-.49,0V88.86a18.6,18.6,0,0,0-2.5.19c0-.31.06-.5.06-.58s0-.26-.06-.56h6.91c0,.3-.06.48-.06.56s0,.27.06.58a21.58,21.58,0,0,0-2.4-.19Z"/><path class="cls-3" d="M354.51,97.29a6.13,6.13,0,0,1-2-.32,4.5,4.5,0,0,1-1.57-.94,4.35,4.35,0,0,1-1-1.52,5.55,5.55,0,0,1-.35-2,4.89,4.89,0,0,1,.63-2.45A4.49,4.49,0,0,1,352,88.3a6,6,0,0,1,2.81-.64,5.71,5.71,0,0,1,2.34.44,3.94,3.94,0,0,1,1.54,1.13,4.39,4.39,0,0,1,.83,1.53,7.11,7.11,0,0,1,.2.83,5.77,5.77,0,0,1,.06.85,4.71,4.71,0,0,1-.37,1.86,4.44,4.44,0,0,1-1.05,1.55,5,5,0,0,1-1.67,1.06A6.15,6.15,0,0,1,354.51,97.29Zm-2.74-4.4a5.05,5.05,0,0,0,.3,1.74A3,3,0,0,0,353,96a2.31,2.31,0,0,0,.71.38,2.71,2.71,0,0,0,.88.13,2.39,2.39,0,0,0,1.65-.59,3.45,3.45,0,0,0,1-1.57,6.71,6.71,0,0,0,.33-2.14,5.29,5.29,0,0,0-.07-.9,5.11,5.11,0,0,0-.23-.87,3.17,3.17,0,0,0-.93-1.4,2.38,2.38,0,0,0-1.58-.54,2.8,2.8,0,0,0-1.25.27,2.43,2.43,0,0,0-.94.81,3.81,3.81,0,0,0-.59,1.38A8.12,8.12,0,0,0,351.77,92.89Z"/><path class="cls-3" d="M368.6,95.55l-.29,1.16a5.65,5.65,0,0,1-2.66.58,6.26,6.26,0,0,1-2-.32,4.76,4.76,0,0,1-1.6-.92A4.24,4.24,0,0,1,361,94.61a4.53,4.53,0,0,1-.38-1.85,5.77,5.77,0,0,1,.41-2.24,4.34,4.34,0,0,1,1.15-1.61,5,5,0,0,1,1.7-.94,7,7,0,0,1,2.09-.31,6.63,6.63,0,0,1,1.43.17,5,5,0,0,1,1.3.49l-.16.73-.15.65h-.18a3,3,0,0,0-.6-.63,2.71,2.71,0,0,0-.78-.44,2.37,2.37,0,0,0-.85-.16,2.74,2.74,0,0,0-2.38,1.3,4.19,4.19,0,0,0-.34.62,3.72,3.72,0,0,0-.23.69,7,7,0,0,0-.13.73,4.67,4.67,0,0,0-.05.77,5.18,5.18,0,0,0,.37,2A3.07,3.07,0,0,0,364.3,96a3,3,0,0,0,1.73.48,3.21,3.21,0,0,0,1.27-.28,3.73,3.73,0,0,0,1.13-.73Z"/><path class="cls-3" d="M371.6,94.31l-.33.94-.37,1-.25.8-.31,0-.32,0-.31,0-.33,0,3.84-9.3a4.38,4.38,0,0,0,.51,0,4.75,4.75,0,0,0,.51,0L378,97.11l-1.16-.06-.58,0c-.22,0-.41,0-.58,0-.39-1.28-.71-2.21-.95-2.8Zm2.81-.82-1.19-3.13L372,93.49Z"/><path class="cls-3" d="M387.45,96.08l.75,0,.76,0a6.92,6.92,0,0,0,.73,0l.84-.1-.07.58a4.49,4.49,0,0,0,.07.58h-5.09V87.91a4.44,4.44,0,0,1,.53,0l.48,0,.51,0a4.63,4.63,0,0,1,.49,0Z"/><path class="cls-3" d="M396.81,87.91a4.1,4.1,0,0,1,1,.1,3.38,3.38,0,0,1,.86.3,3.49,3.49,0,0,1,1.27.94,4,4,0,0,1,.73,1.35,5.59,5.59,0,0,1,.23,1.61,5.39,5.39,0,0,1-.36,2,4.33,4.33,0,0,1-1,1.53,4.63,4.63,0,0,1-1.56,1,5.45,5.45,0,0,1-1.92.33h-3.76V87.91Zm-2.57,8.36h1.14a3.15,3.15,0,0,0,2.39-.92,4.62,4.62,0,0,0,.86-3.15,4.76,4.76,0,0,0-.36-2,2.34,2.34,0,0,0-1-1.14,3.58,3.58,0,0,0-1.67-.36h-1.31Z"/><path class="cls-3" d="M403.92,94.31l-.33.94-.37,1-.25.8-.31,0-.32,0-.31,0-.33,0,3.84-9.3a4.38,4.38,0,0,0,.51,0,4.75,4.75,0,0,0,.51,0l3.74,9.32-1.15-.06-.58,0c-.22,0-.42,0-.58,0-.39-1.28-.71-2.21-.95-2.8Zm2.81-.82-1.19-3.13-1.26,3.13Z"/><path class="cls-3" d="M411.24,96.13a1,1,0,0,1,.33-.77,1,1,0,0,1,.76-.32,1,1,0,0,1,.54.15,1.24,1.24,0,0,1,.42.4,1,1,0,0,1,.15.54,1.1,1.1,0,0,1-.32.78,1.07,1.07,0,0,1-.79.33,1,1,0,0,1-.77-.33A1.1,1.1,0,0,1,411.24,96.13Z"/></svg>