<svg id="Слой_1" data-name="Слой 1" xmlns="http://www.w3.org/2000/svg" viewBox="0 0 1417.32 1417.32"><defs><style>.cls-1{fill:#fff;}.cls-2{fill:#7f7f80;}.cls-3{fill:#26326e;}</style></defs><title>catoca</title><polygon class="cls-1" points="186.37 865.65 11 577.07 362.72 577.07 186.37 865.65"/><polygon class="cls-2" points="353.42 592.4 363.84 575.36 10 575.36 20.36 592.4 353.42 592.4"/><polygon class="cls-2" points="144.36 796.46 186.42 865.68 228.72 796.46 144.36 796.46"/><polygon class="cls-2" points="324.84 639.17 343.03 609.41 30.7 609.41 48.78 639.17 324.84 639.17"/><polygon class="cls-2" points="267.69 732.69 285.87 702.94 87.53 702.94 105.61 732.69 267.69 732.69"/><polygon class="cls-2" points="115.94 749.7 134.03 779.46 239.11 779.46 257.29 749.7 115.94 749.7"/><polygon class="cls-2" points="296.26 685.93 314.45 656.17 59.11 656.17 77.19 685.93 296.26 685.93"/><rect class="cls-2" x="364.65" y="788.77" width="1048.82" height="5.67"/><path class="cls-3" d="M520.4,738.8l-5.74,22.57Q493.12,772.58,463,772.58a118.52,118.52,0,0,1-38.88-6.24,92.53,92.53,0,0,1-31.29-17.85,81.58,81.58,0,0,1-20.65-28.11,86,86,0,0,1-7.46-35.88q0-24.74,8-43.66a83.54,83.54,0,0,1,22.31-31.24,93.7,93.7,0,0,1,33-18.29,133,133,0,0,1,40.67-6,124.63,124.63,0,0,1,27.85,3.32,91.08,91.08,0,0,1,25.31,9.56l-3.19,14L515.94,625h-3.57a57.43,57.43,0,0,0-11.6-12.37,55.54,55.54,0,0,0-15.17-8.48A47.49,47.49,0,0,0,469,601q-15.42,0-27.15,6.76a55.57,55.57,0,0,0-19.25,18.48,90.94,90.94,0,0,0-6.5,12,79.43,79.43,0,0,0-4.46,13.45A135.92,135.92,0,0,0,409,666a117.27,117.27,0,0,0-.89,14.92q0,22.19,7.27,39.58t21.28,26.9q14,9.5,33.66,9.49A63,63,0,0,0,495,751.42,72.23,72.23,0,0,0,517,737.27Z"/><path class="cls-3" d="M578.71,714.58l-6.44,18.28-7.12,20.23-4.84,15.54-6.12-.38-6.13-.38-6.12.38-6.37.38,74.7-180.89a64.36,64.36,0,0,0,9.81.77,68.88,68.88,0,0,0,9.95-.77l72.91,181.4-22.42-1.27q-4.85.51-11.34.89c-4.34.25-8.07.38-11.21.38q-11.47-37.35-18.48-54.56Zm54.76-15.93-23.2-60.81-24.56,60.81Z"/><path class="cls-3" d="M799.19,769.14l-19.51-1.27c-2.89.34-6.2.63-9.94.89s-7,.38-9.69.38V608.52a371.36,371.36,0,0,0-48.57,3.7A107.61,107.61,0,0,0,712.76,601q0-2.16-1.28-11H846a109.74,109.74,0,0,0-1.27,11A111.52,111.52,0,0,0,846,612.22q-31.37-3.71-46.78-3.7Z"/><path class="cls-3" d="M957.26,772.58q-21.93,0-39.65-6.24a84.13,84.13,0,0,1-30.4-18.3,81.71,81.71,0,0,1-19.63-29.44q-6.95-17.4-7-39.33a94.1,94.1,0,0,1,12.3-47.61q12.3-21.48,35.76-33.91t54.81-12.43q26.52,0,45.45,8.41t30,22a86.92,86.92,0,0,1,16.06,29.9,120.86,120.86,0,0,1,3.83,16.12,102.85,102.85,0,0,1,1.27,16.51,93.49,93.49,0,0,1-7.14,36.2,89.54,89.54,0,0,1-20.52,30.22,96.05,96.05,0,0,1-32.57,20.46Q980.72,772.59,957.26,772.58ZM904,686.92a100.17,100.17,0,0,0,5.74,33.91,57.64,57.64,0,0,0,18,26,43.11,43.11,0,0,0,13.77,7.52,53.51,53.51,0,0,0,17.08,2.55q19,0,32.19-11.47t19.63-30.66a129.69,129.69,0,0,0,6.44-41.49,106.32,106.32,0,0,0-1.4-17.53,102.48,102.48,0,0,0-4.46-17,61,61,0,0,0-18.23-27.15Q980.21,601,962,601a54.86,54.86,0,0,0-24.29,5.23A48,48,0,0,0,919.4,622q-7.53,10.59-11.48,26.9T904,686.92Z"/><path class="cls-3" d="M1231.33,738.8l-5.73,22.57Q1204,772.58,1174,772.58a118.48,118.48,0,0,1-38.88-6.24,92.68,92.68,0,0,1-31.3-17.85,81.71,81.71,0,0,1-20.65-28.11,86.12,86.12,0,0,1-7.46-35.88q0-24.74,8-43.66A83.66,83.66,0,0,1,1106,609.6a93.84,93.84,0,0,1,33-18.29,133,133,0,0,1,40.67-6,124.7,124.7,0,0,1,27.85,3.32,91,91,0,0,1,25.3,9.56l-3.18,14L1226.87,625h-3.57a56.94,56.94,0,0,0-11.6-12.37,55.25,55.25,0,0,0-15.17-8.48A47.44,47.44,0,0,0,1180,601q-15.42,0-27.15,6.76a55.49,55.49,0,0,0-19.25,18.48,89.79,89.79,0,0,0-6.5,12,77.69,77.69,0,0,0-4.46,13.45,131,131,0,0,0-2.68,14.27,115.45,115.45,0,0,0-.89,14.92q0,22.19,7.26,39.58t21.29,26.9q14,9.5,33.65,9.49a62.91,62.91,0,0,0,24.73-5.48,72,72,0,0,0,21.93-14.15Z"/><path class="cls-3" d="M1289.65,714.58l-6.45,18.28-7.11,20.23-4.85,15.54-6.12-.38-6.12-.38-6.12.38-6.38.38,74.7-180.89a64.59,64.59,0,0,0,9.82.77,68.74,68.74,0,0,0,9.94-.77l72.92,181.4-22.43-1.27q-4.85.51-11.34.89t-11.21.38q-11.48-37.35-18.47-54.56Zm54.75-15.93-23.2-60.81-24.56,60.81Z"/><path class="cls-3" d="M979.23,827.38q-1.54-4-5.32-4c-3.38,0-5.07,1.5-5.07,4.52a3.43,3.43,0,0,0,1.36,3,52,52,0,0,0,5.11,2.9,19.67,19.67,0,0,1,5.69,4.11,8.2,8.2,0,0,1,1.87,5.65,9.1,9.1,0,0,1-1.55,5.22,10.37,10.37,0,0,1-4.36,3.63,14.78,14.78,0,0,1-6.31,1.31,13.64,13.64,0,0,1-7.44-2,48.14,48.14,0,0,0,1.36-5.88h.87a6.21,6.21,0,0,0,2.23,3.71,6.42,6.42,0,0,0,4.12,1.38,5.94,5.94,0,0,0,3.83-1.26,4.28,4.28,0,0,0,1.58-3.54,4.16,4.16,0,0,0-1.45-3.54,33.77,33.77,0,0,0-5.07-2.8,17.11,17.11,0,0,1-5.42-3.73,8.32,8.32,0,0,1-1.8-5.76,10.47,10.47,0,0,1,.68-3.77,8.42,8.42,0,0,1,2-3.09,9.46,9.46,0,0,1,3.38-2.07,13.08,13.08,0,0,1,4.55-.75,13.58,13.58,0,0,1,4.37.67,7.78,7.78,0,0,1,2.91,1.55c-.11.26-.27.73-.48,1.4q-.55,1.71-1,3.15Z"/><path class="cls-3" d="M1003,853.69a20.91,20.91,0,0,1-7-1.11,14.87,14.87,0,0,1-5.37-3.23,14.38,14.38,0,0,1-3.46-5.2A18.56,18.56,0,0,1,986,837.2a16.6,16.6,0,0,1,2.17-8.41,15.37,15.37,0,0,1,6.32-6,20.42,20.42,0,0,1,9.68-2.19,19.72,19.72,0,0,1,8,1.48,14,14,0,0,1,5.3,3.89,15.4,15.4,0,0,1,2.84,5.28,21,21,0,0,1,.68,2.85,18.09,18.09,0,0,1,.22,2.91,16.56,16.56,0,0,1-1.26,6.4,15.79,15.79,0,0,1-3.63,5.33,16.78,16.78,0,0,1-5.75,3.62A20.6,20.6,0,0,1,1003,853.69Zm-9.41-15.14a17.52,17.52,0,0,0,1,6,10.12,10.12,0,0,0,3.17,4.6,7.71,7.71,0,0,0,2.44,1.33,9.47,9.47,0,0,0,3,.45,8.37,8.37,0,0,0,5.69-2,12.14,12.14,0,0,0,3.47-5.42,22.84,22.84,0,0,0,1.13-7.33,19.17,19.17,0,0,0-.24-3.09,18.35,18.35,0,0,0-.79-3,10.84,10.84,0,0,0-3.22-4.8,8.13,8.13,0,0,0-5.43-1.86,9.65,9.65,0,0,0-4.29.92,8.42,8.42,0,0,0-3.23,2.79,13.76,13.76,0,0,0-2,4.75A29,29,0,0,0,993.62,838.55Z"/><path class="cls-3" d="M1051.45,847.72l-1,4a19.52,19.52,0,0,1-9.12,2,20.88,20.88,0,0,1-6.87-1.11,16.12,16.12,0,0,1-5.52-3.15,14.39,14.39,0,0,1-3.65-5,15.14,15.14,0,0,1-1.32-6.33,19.55,19.55,0,0,1,1.42-7.72,14.6,14.6,0,0,1,3.94-5.51,16.57,16.57,0,0,1,5.83-3.24,23.66,23.66,0,0,1,7.19-1,22.11,22.11,0,0,1,4.92.58,16.06,16.06,0,0,1,4.47,1.69l-.57,2.48-.49,2.25H1050a10.38,10.38,0,0,0-2-2.19,9.61,9.61,0,0,0-2.68-1.49,8.33,8.33,0,0,0-2.93-.55,9.42,9.42,0,0,0-4.8,1.19,9.9,9.9,0,0,0-3.4,3.26A17.09,17.09,0,0,0,1033,830a14.76,14.76,0,0,0-.78,2.38,25.22,25.22,0,0,0-.48,2.52,21.61,21.61,0,0,0-.15,2.64,17.93,17.93,0,0,0,1.28,7,10.44,10.44,0,0,0,3.76,4.75,10.33,10.33,0,0,0,5.95,1.68,11.2,11.2,0,0,0,4.36-1,12.89,12.89,0,0,0,3.88-2.5Z"/><path class="cls-3" d="M1057.73,821.44a17,17,0,0,1,1.8.08l1.64.14c.51-.06,1.1-.11,1.76-.15s1.23-.07,1.71-.07v31.64l-3.47-.23c-.51.06-1.09.12-1.75.16s-1.23.07-1.69.07Z"/><path class="cls-3" d="M1090,821.44l-.22,2a18.08,18.08,0,0,0,.22,2,81.83,81.83,0,0,0-10.65-.63v9.91h4.8a38.52,38.52,0,0,0,5.67-.43,9.16,9.16,0,0,0,0,4c-1-.14-2-.24-2.91-.32s-1.87-.11-2.76-.11h-4.8v11.71q3.22,0,5.67-.15t5-.48l-.22,2a18.08,18.08,0,0,0,.22,2h-17.56V821.44Z"/><path class="cls-3" d="M1111.64,821.44a14.28,14.28,0,0,1,3.3.35,14.61,14.61,0,0,1,3,1,12.1,12.1,0,0,1,4.35,3.26,13.63,13.63,0,0,1,2.5,4.62,18.51,18.51,0,0,1,.81,5.54,18.27,18.27,0,0,1-1.26,6.95,14.59,14.59,0,0,1-3.56,5.25,15.89,15.89,0,0,1-5.36,3.29,19,19,0,0,1-6.6,1.13h-12.93V821.44Zm-8.85,28.73h3.92a10.74,10.74,0,0,0,8.21-3.16q3-3.16,3-10.82a16.36,16.36,0,0,0-1.25-6.91,8.16,8.16,0,0,0-3.61-3.91,12.21,12.21,0,0,0-5.75-1.25h-4.5Z"/><path class="cls-3" d="M1136.06,843.44l-1.14,3.23-1.25,3.57-.86,2.75-1.08-.07-1.08-.07-1.08.07-1.13.07,13.2-32a11.31,11.31,0,0,0,1.73.14,12.24,12.24,0,0,0,1.76-.14L1158,853.08l-4-.23c-.57.06-1.24.12-2,.16s-1.42.07-2,.07q-2-6.6-3.26-9.64Zm9.68-2.82-4.1-10.74-4.34,10.74Z"/><path class="cls-3" d="M1178.3,821.44a14.4,14.4,0,0,1,3.3.35,14.61,14.61,0,0,1,3,1,12.1,12.1,0,0,1,4.35,3.26,13.6,13.6,0,0,1,2.49,4.62,19.42,19.42,0,0,1-.45,12.49,14.57,14.57,0,0,1-3.55,5.25,15.89,15.89,0,0,1-5.36,3.29,19,19,0,0,1-6.6,1.13h-12.93V821.44Zm-8.85,28.73h3.92a10.74,10.74,0,0,0,8.21-3.16q3-3.16,3-10.82a16.36,16.36,0,0,0-1.25-6.91,8.13,8.13,0,0,0-3.62-3.91,12.17,12.17,0,0,0-5.74-1.25h-4.5Z"/><path class="cls-3" d="M1215.66,821.44l-.23,2a19.17,19.17,0,0,0,.23,2,81.94,81.94,0,0,0-10.65-.63v9.91h4.79a38.65,38.65,0,0,0,5.68-.43,8.77,8.77,0,0,0,0,4c-1-.14-2-.24-2.92-.32s-1.87-.11-2.76-.11H1205v11.71c2.14,0,4,0,5.66-.15s3.29-.25,5-.48l-.23,2a19.17,19.17,0,0,0,.23,2h-17.57V821.44Z"/><path class="cls-3" d="M1272.07,821.43a17.23,17.23,0,0,0,1.94.23,17.52,17.52,0,0,0,2-.23l1.08,9.42,1,8.08.94,7.3c.17,1.17.34,2.34.52,3.52q.21,1.23.54,3.33l-3.83-.23-3.73.23c0-.69,0-1.39-.08-2.08s-.14-1.79-.26-3.28l-.48-5.11-.51-4.78-.66-6.25-2.51,5.07-2.71,5.6-2.63,5.54-2.39,5.05h-1.75l-2.36-5-1.4-2.93c-.31-.66-.67-1.37-1.08-2.14l-2.63-5.38-2.63-5.36q-.92,7.18-1.4,12.09-.52,5.61-.53,8.9l-2.17-.23-2.11.23c.4-2.25.85-4.93,1.33-8q.63-4.09,1.55-10.54,1.1-7.8,1.82-13.09a16.19,16.19,0,0,0,1.9.23,17.16,17.16,0,0,0,1.93-.23q2.92,6.45,10.61,21.69l2.57-5,3-5.9c.63-1.21,1.17-2.27,1.6-3.17.3-.6.65-1.33,1-2.17s.83-1.75,1.29-2.75C1271.11,823.56,1271.51,822.67,1272.07,821.43Z"/><path class="cls-3" d="M1285.83,821.44a16.91,16.91,0,0,1,1.8.08l1.64.14c.52-.06,1.1-.11,1.76-.15s1.23-.07,1.71-.07v31.64l-3.47-.23c-.51.06-1.09.12-1.75.16s-1.23.07-1.69.07Z"/><path class="cls-3" d="M1300.85,821.44h4.57l4.57,4.91,5.11,5.45,5.41,5.83,1.6,1.76q1.37,1.5,1.62,1.8c.66.75,1.2,1.36,1.62,1.85v-21.6a12.21,12.21,0,0,0,1.85.13,13,13,0,0,0,1.84-.13v31.64l-3.91-.05-5.7-6.35-5.07-5.58c-.67-.75-1.46-1.62-2.36-2.59-.65-.71-1.46-1.57-2.43-2.59l-5-5.25V853l-.94-.07-.9-.07-.93.07-.92.07Z"/><path class="cls-3" d="M1354,821.44l-.22,2a18.08,18.08,0,0,0,.22,2,81.83,81.83,0,0,0-10.65-.63v9.91h4.8a38.52,38.52,0,0,0,5.67-.43,9.16,9.16,0,0,0,0,4c-1-.14-2-.24-2.91-.32s-1.88-.11-2.76-.11h-4.8v11.71c2.15,0,4,0,5.66-.15s3.29-.25,5-.48l-.22,2a18.08,18.08,0,0,0,.22,2h-17.56V821.44Z"/><path class="cls-3" d="M1359.4,821.44h9.82q5.49,0,7.48.92a7,7,0,0,1,4,6.6,7.81,7.81,0,0,1-1.92,5.44,9.73,9.73,0,0,1-5.26,2.87l2.32,3.9,3.06,4.79,2.77,4.26,1.8,2.86-4.18-.23c-.62.06-1.33.12-2.13.16s-1.49.07-2,.07l-5.47-9.68-1.53-2.62-1.49-2.5h-.32v14.8l-3.46-.23c-.5.06-1.08.12-1.74.16s-1.23.07-1.71.07Zm6.91,14.86,1.15.05q6.11,0,6.11-6.65c0-.33,0-.7-.07-1.11s-.11-.82-.18-1.21a3.41,3.41,0,0,0-1.82-2.79,9.46,9.46,0,0,0-3.81-.65h-1.38Z"/><path class="cls-3" d="M1392.36,843.44l-1.14,3.23-1.26,3.57-.85,2.75-1.09-.07-1.08-.07-1.08.07-1.12.07,13.19-32a11.44,11.44,0,0,0,1.74.14,12.1,12.1,0,0,0,1.75-.14l12.88,32.05-4-.23c-.57.06-1.24.12-2,.16s-1.43.07-2,.07q-2-6.6-3.27-9.64Zm9.67-2.82-4.1-10.74-4.34,10.74Z"/><path class="cls-3" d="M1039.85,876.78a15,15,0,0,1,3.3.35,14.64,14.64,0,0,1,3,1,12.08,12.08,0,0,1,4.35,3.25A13.56,13.56,0,0,1,1053,886a18.1,18.1,0,0,1,.82,5.54,18.31,18.31,0,0,1-1.27,6.95,14.61,14.61,0,0,1-3.55,5.24,15.74,15.74,0,0,1-5.36,3.29,18.84,18.84,0,0,1-6.6,1.14h-12.93V876.78ZM1031,905.52h3.92a10.75,10.75,0,0,0,8.21-3.17q3-3.17,3-10.82a16.39,16.39,0,0,0-1.25-6.91,8.18,8.18,0,0,0-3.62-3.91,12.17,12.17,0,0,0-5.74-1.25H1031Z"/><path class="cls-3" d="M1077.21,876.78l-.23,2a19.55,19.55,0,0,0,.23,2,81.94,81.94,0,0,0-10.65-.63V890h4.79a40,40,0,0,0,5.68-.42,8.72,8.72,0,0,0,0,4c-1-.13-2-.24-2.92-.31s-1.87-.12-2.76-.12h-4.79v11.71c2.14,0,4,0,5.66-.14s3.29-.26,5-.49l-.23,2a19.79,19.79,0,0,0,.23,2h-17.57V876.78Z"/><path class="cls-3" d="M1130.85,903.06l-1,4a19.55,19.55,0,0,1-9.12,2,21.05,21.05,0,0,1-6.87-1.1,16.35,16.35,0,0,1-5.53-3.16,14.47,14.47,0,0,1-3.65-5,15.22,15.22,0,0,1-1.32-6.34,19.71,19.71,0,0,1,1.42-7.71,14.83,14.83,0,0,1,3.94-5.52,16.43,16.43,0,0,1,5.84-3.23,23.29,23.29,0,0,1,7.18-1.06,21.44,21.44,0,0,1,4.92.59,16.37,16.37,0,0,1,4.47,1.68l-.56,2.48-.5,2.25h-.63a10.08,10.08,0,0,0-2-2.18,9.75,9.75,0,0,0-2.68-1.5,8.29,8.29,0,0,0-2.93-.55,9.48,9.48,0,0,0-4.79,1.19,9.84,9.84,0,0,0-3.4,3.27,14.74,14.74,0,0,0-1.15,2.13,13.44,13.44,0,0,0-.79,2.37,22.56,22.56,0,0,0-.47,2.52,19.71,19.71,0,0,0-.16,2.64,18.11,18.11,0,0,0,1.28,7,9.94,9.94,0,0,0,9.71,6.43,11.07,11.07,0,0,0,4.37-1,12.66,12.66,0,0,0,3.87-2.5Z"/><path class="cls-3" d="M1141.15,898.78,1140,902l-1.25,3.58-.86,2.74-1.08-.07-1.08-.06-1.08.06-1.13.07,13.2-32a11.29,11.29,0,0,0,1.73.13,12.17,12.17,0,0,0,1.76-.13l12.88,32-4-.22q-.86.09-2,.15c-.76,0-1.42.07-2,.07q-2-6.6-3.26-9.64Zm9.68-2.81-4.1-10.74L1142.39,896Z"/><path class="cls-3" d="M1180.1,908.42l-3.44-.22c-.52.06-1.1.11-1.76.15s-1.23.07-1.71.07V880.05a66.47,66.47,0,0,0-8.58.65,18.34,18.34,0,0,0,.22-2,18.87,18.87,0,0,0-.22-1.94h23.76a17.23,17.23,0,0,0-.23,1.94,17.52,17.52,0,0,0,.23,2,79.15,79.15,0,0,0-8.27-.65Z"/><path class="cls-3" d="M1208,909a21.11,21.11,0,0,1-7-1.1,15,15,0,0,1-5.37-3.23,14.57,14.57,0,0,1-3.47-5.21,18.54,18.54,0,0,1-1.23-6.94,16.67,16.67,0,0,1,2.18-8.42,15.48,15.48,0,0,1,6.31-6,20.46,20.46,0,0,1,9.69-2.19,19.55,19.55,0,0,1,8,1.49,14.05,14.05,0,0,1,5.3,3.88,15.4,15.4,0,0,1,2.84,5.28,21.61,21.61,0,0,1,.67,2.85,18.19,18.19,0,0,1,.23,2.92,16.55,16.55,0,0,1-1.26,6.39,15.73,15.73,0,0,1-3.63,5.34,17,17,0,0,1-5.75,3.61A20.61,20.61,0,0,1,1208,909Zm-9.41-15.13a17.81,17.81,0,0,0,1,6,10.23,10.23,0,0,0,3.18,4.59,7.57,7.57,0,0,0,2.43,1.33,9.53,9.53,0,0,0,3,.45,8.39,8.39,0,0,0,5.69-2,12,12,0,0,0,3.46-5.41,22.84,22.84,0,0,0,1.14-7.33,18.28,18.28,0,0,0-.25-3.1,17,17,0,0,0-.79-3,10.65,10.65,0,0,0-3.21-4.79,8.13,8.13,0,0,0-5.43-1.87,9.79,9.79,0,0,0-4.29.92,8.52,8.52,0,0,0-3.23,2.79,13.54,13.54,0,0,0-2,4.76A28.46,28.46,0,0,0,1198.61,893.9Z"/><path class="cls-3" d="M1256.44,903.06l-1,4a19.55,19.55,0,0,1-9.12,2,21.05,21.05,0,0,1-6.87-1.1,16.35,16.35,0,0,1-5.53-3.16,14.47,14.47,0,0,1-3.65-5,15.22,15.22,0,0,1-1.31-6.34,19.71,19.71,0,0,1,1.41-7.71,14.83,14.83,0,0,1,3.94-5.52,16.52,16.52,0,0,1,5.84-3.23,23.29,23.29,0,0,1,7.18-1.06,21.44,21.44,0,0,1,4.92.59,16.12,16.12,0,0,1,4.47,1.68l-.56,2.48-.5,2.25H1255a10.08,10.08,0,0,0-2-2.18,9.6,9.6,0,0,0-2.68-1.5,8.28,8.28,0,0,0-2.92-.55,9.49,9.49,0,0,0-4.8,1.19,9.84,9.84,0,0,0-3.4,3.27,15.78,15.78,0,0,0-1.15,2.13,14.31,14.31,0,0,0-.79,2.37,22.56,22.56,0,0,0-.47,2.52,19.71,19.71,0,0,0-.16,2.64,17.92,17.92,0,0,0,1.29,7,9.94,9.94,0,0,0,9.7,6.43,11.07,11.07,0,0,0,4.37-1,12.54,12.54,0,0,0,3.87-2.5Z"/><path class="cls-3" d="M1266.74,898.78l-1.13,3.23-1.26,3.58-.86,2.74-1.08-.07-1.08-.06-1.08.06-1.13.07,13.2-32a11.29,11.29,0,0,0,1.73.13,12.17,12.17,0,0,0,1.76-.13l12.88,32-4-.22q-.86.09-2,.15c-.76,0-1.42.07-2,.07q-2-6.6-3.26-9.64Zm9.68-2.81-4.1-10.74L1268,896Z"/><path class="cls-3" d="M1321.23,904.86c.5,0,1.34,0,2.54-.07s2.08-.08,2.64-.08,1.52-.06,2.5-.16l2.88-.32-.22,2a18.6,18.6,0,0,0,.22,2h-17.47V876.78c.64,0,1.24,0,1.8.08l1.66.15c.51-.06,1.1-.11,1.76-.16s1.22-.07,1.69-.07Z"/><path class="cls-3" d="M1353.39,876.78a15,15,0,0,1,3.3.35,14.64,14.64,0,0,1,3,1,12.08,12.08,0,0,1,4.35,3.25,13.56,13.56,0,0,1,2.49,4.63,18.1,18.1,0,0,1,.82,5.54,18.31,18.31,0,0,1-1.27,6.95,14.61,14.61,0,0,1-3.55,5.24,15.74,15.74,0,0,1-5.36,3.29,18.84,18.84,0,0,1-6.6,1.14H1337.6V876.78Zm-8.85,28.74h3.92a10.75,10.75,0,0,0,8.21-3.17q3-3.17,3-10.82a16.39,16.39,0,0,0-1.25-6.91,8.18,8.18,0,0,0-3.62-3.91,12.17,12.17,0,0,0-5.74-1.25h-4.5Z"/><path class="cls-3" d="M1377.81,898.78l-1.14,3.23-1.25,3.58-.86,2.74-1.08-.07-1.08-.06-1.09.06-1.12.07,13.19-32a11.51,11.51,0,0,0,1.74.13,12.27,12.27,0,0,0,1.76-.13l12.88,32-4-.22c-.57.06-1.23.11-2,.15s-1.42.07-2,.07q-2-6.6-3.26-9.64Zm9.67-2.81-4.1-10.74L1379.05,896Z"/><path class="cls-3" d="M1403,905a3.71,3.71,0,0,1,5.6-3.24,4.17,4.17,0,0,1,1.42,1.38,3.42,3.42,0,0,1,.54,1.86,3.65,3.65,0,0,1-1.12,2.68,3.69,3.69,0,0,1-2.71,1.13,3.54,3.54,0,0,1-2.63-1.14A3.66,3.66,0,0,1,1403,905Z"/></svg>